<svg width="78" height="79" viewBox="0 0 78 79" fill="none" xmlns="http://www.w3.org/2000/svg">
<g clip-path="url(#clip0_296_4357)">
<path d="M78 39.9316C78 18.3925 60.5391 0.931641 39 0.931641C17.4609 0.931641 0 18.3925 0 39.9316C0 61.4707 17.4609 78.9316 39 78.9316C60.5391 78.9316 78 61.4707 78 39.9316Z" fill="#6F6FFB"/>
<path d="M21.9375 52.1191C25.303 52.1191 28.0312 49.3909 28.0312 46.0254C28.0312 42.6599 25.303 39.9316 21.9375 39.9316C18.572 39.9316 15.8438 42.6599 15.8438 46.0254C15.8438 49.3909 18.572 52.1191 21.9375 52.1191Z" fill="#F0BD70"/>
<path d="M21.9375 50.9004H42.6562V81.2107C42.6562 81.2107 38.2163 83.8066 32.2969 83.8066C26.3774 83.8066 21.9375 79.569 21.9375 79.569V50.9004Z" fill="#F0BD70"/>
<path d="M42.6563 66.5833C42.6563 73.4741 41.5813 72.8208 34.5918 72.8208C27.6023 72.8208 24.3775 67.2353 24.3775 60.3445C24.3775 53.4537 24.1118 47.2441 29.7521 47.2441C45.7031 47.8535 42.6563 59.6925 42.6563 66.5833Z" fill="#E9B05B"/>
<path d="M55.9235 44.9285C55.9235 55.8022 60.4158 69.1731 40.828 69.1731C21.2403 69.1731 21.2403 55.8022 21.2403 44.9285C18.2811 32.0098 18.8905 16.7754 38.9999 16.7754C59.1093 16.7754 55.9235 34.0536 55.9235 44.9285Z" fill="#FFCB7E"/>
<path d="M46.3125 50.9004H45.0938C44.4207 50.9004 43.875 51.446 43.875 52.1191C43.875 52.7922 44.4207 53.3379 45.0938 53.3379H46.3125C46.9856 53.3379 47.5312 52.7922 47.5312 52.1191C47.5312 51.446 46.9856 50.9004 46.3125 50.9004Z" fill="#F0BD70"/>
<path d="M46.3125 74.0566H19.5C13.4421 74.0566 8.53125 78.9675 8.53125 85.0254V91.1191C8.53125 97.177 13.4421 102.088 19.5 102.088H46.3125C52.3704 102.088 57.2812 97.177 57.2812 91.1191V85.0254C57.2812 78.9675 52.3704 74.0566 46.3125 74.0566Z" fill="#E05A33"/>
<path fill-rule="evenodd" clip-rule="evenodd" d="M56.0236 40.5205C57.0351 39.9496 57.8096 39.0362 58.2073 37.9448C58.6051 36.8535 58.6 35.656 58.1929 34.5681C59.3055 34.0317 60.173 33.0931 60.6202 31.9418C61.0673 30.7905 61.0609 29.5124 60.602 28.3657C60.1432 27.219 59.2662 26.2892 58.1483 25.7642C57.0303 25.2391 55.7548 25.158 54.5793 25.5372C56.3063 30.0148 56.1796 35.5528 56.0236 40.5205Z" fill="#47280B"/>
<path fill-rule="evenodd" clip-rule="evenodd" d="M44.237 28.6706C43.1263 29.647 41.6975 30.1844 40.2188 30.1819C38.8701 30.1841 37.5591 29.7368 36.493 28.9107C35.702 29.7015 34.7627 30.3285 33.7289 30.7558C32.6952 31.183 31.5873 31.4022 30.4688 31.4006C29.6242 31.4012 28.7843 31.2763 27.9764 31.0301C27.6587 31.3778 27.2926 31.6779 26.8893 31.921C27.3691 32.4919 27.7115 33.1653 27.8902 33.8893C28.0689 34.6133 28.0791 35.3686 27.9201 36.0972C27.761 36.8258 27.437 37.5081 26.9728 38.0918C26.5087 38.6755 25.9168 39.1449 25.2428 39.4639C25.4439 39.7394 25.5639 40.0658 25.5893 40.406C25.6146 40.7463 25.5442 41.0868 25.3861 41.3891C25.228 41.6914 24.9884 41.9434 24.6945 42.1167C24.4006 42.2899 24.064 42.3774 23.723 42.3694C23.1255 43.4089 22.1659 44.1918 21.0276 44.5685C19.8893 44.9451 18.6521 44.889 17.5525 44.4109C16.4529 43.9328 15.5681 43.0663 15.0672 41.977C14.5662 40.8876 14.4843 39.6519 14.8371 38.5059C14.3829 38.0538 14.0227 37.5163 13.7771 36.9243C13.5316 36.3324 13.4055 35.6977 13.4063 35.0569C13.4063 33.7089 13.9535 32.489 14.8371 31.6078C14.6017 30.8379 14.5606 30.0217 14.7176 29.2321C14.8745 28.4424 15.2246 27.704 15.7365 27.0826C15.1025 25.9654 14.7288 24.7195 14.6434 23.4378C14.5579 22.1561 14.7629 20.8716 15.243 19.6801C15.7231 18.4887 16.4659 17.4209 17.4162 16.5566C18.3664 15.6922 19.4995 15.0534 20.7309 14.6879C20.6676 13.812 20.842 12.9353 21.2358 12.1504C21.6295 11.3655 22.228 10.7015 22.968 10.2286C23.7079 9.75565 24.5618 9.49139 25.4396 9.46371C26.3173 9.43603 27.1862 9.64595 27.9545 10.0713C28.7032 8.7742 29.7803 7.69718 31.0775 6.94858C32.3746 6.19999 33.8461 5.80621 35.3438 5.80688C37.0171 5.80688 38.5783 6.28829 39.8958 7.12191C40.8008 6.14705 41.9366 5.41567 43.1985 4.9952C44.4605 4.57473 45.808 4.47868 47.1168 4.71593C48.4256 4.95317 49.6537 5.51606 50.6878 6.35271C51.7219 7.18937 52.5287 8.27287 53.0339 9.50335C53.6787 9.58692 54.3002 9.79862 54.8619 10.126C55.4236 10.4533 55.9142 10.8897 56.3047 11.4095C56.6952 11.9293 56.9779 12.5219 57.1359 13.1525C57.294 13.7832 57.3244 14.439 57.2252 15.0816C59.486 16.7561 60.9375 19.3496 60.9375 22.26C60.9375 27.3081 56.5719 31.4006 51.1875 31.4006C48.466 31.4006 46.0054 30.3549 44.237 28.6706Z" fill="#47280B"/>
<path d="M35.2573 56.9941C35.2573 56.6709 35.3857 56.3609 35.6143 56.1324C35.8428 55.9038 36.1528 55.7754 36.4761 55.7754H47.6191C47.9423 55.7754 48.2523 55.9038 48.4809 56.1324C48.7094 56.3609 48.8379 56.6709 48.8379 56.9941C48.8379 58.6103 48.1958 60.1603 47.053 61.3031C45.9102 62.4459 44.3603 63.0879 42.7441 63.0879H41.3511C39.7349 63.0879 38.1849 62.4459 37.0421 61.3031C35.8993 60.1603 35.2573 58.6103 35.2573 56.9941Z" fill="#66253C"/>
<path fill-rule="evenodd" clip-rule="evenodd" d="M44.795 62.7349C44.1367 62.9697 43.4428 63.0892 42.7439 63.0883H41.3508C39.7769 63.0883 38.264 62.4793 37.129 61.3889C35.994 60.2984 35.3249 58.811 35.262 57.2383C36.1931 56.8898 37.5752 56.93 38.9389 56.9702C39.3728 56.9824 39.8042 56.9946 40.2186 56.9946C42.9121 56.9946 45.0936 58.9044 45.0936 61.2602C45.0936 61.7782 44.9876 62.2754 44.795 62.7349Z" fill="#B03E67"/>
<path d="M36.5625 55.7754H48.75V56.9941C48.75 57.3174 48.6216 57.6274 48.393 57.8559C48.1645 58.0845 47.8545 58.2129 47.5312 58.2129H37.7812C37.458 58.2129 37.148 58.0845 36.9195 57.8559C36.6909 57.6274 36.5625 57.3174 36.5625 56.9941V55.7754Z" fill="white"/>
<path d="M40.2188 46.6348C40.2188 45.6251 39.4003 44.8066 38.3906 44.8066C37.381 44.8066 36.5625 45.6251 36.5625 46.6348V47.8535C36.5625 48.8632 37.381 49.6816 38.3906 49.6816C39.4003 49.6816 40.2188 48.8632 40.2188 47.8535V46.6348Z" fill="#1B0B47"/>
<path d="M52.4062 46.6348C52.4062 45.6251 51.5878 44.8066 50.5781 44.8066C49.5685 44.8066 48.75 45.6251 48.75 46.6348V47.8535C48.75 48.8632 49.5685 49.6816 50.5781 49.6816C51.5878 49.6816 52.4062 48.8632 52.4062 47.8535V46.6348Z" fill="#1B0B47"/>
<path d="M33.5156 48.4629H31.0781C30.0685 48.4629 29.25 49.2814 29.25 50.291C29.25 51.3007 30.0685 52.1191 31.0781 52.1191H33.5156C34.5253 52.1191 35.3438 51.3007 35.3438 50.291C35.3438 49.2814 34.5253 48.4629 33.5156 48.4629Z" fill="#FF859B"/>
<path d="M55.4531 48.4629H54.2344C53.2247 48.4629 52.4062 49.2814 52.4062 50.291C52.4062 51.3007 53.2247 52.1191 54.2344 52.1191H55.4531C56.4628 52.1191 57.2812 51.3007 57.2812 50.291C57.2812 49.2814 56.4628 48.4629 55.4531 48.4629Z" fill="#FF859B"/>
</g>
<defs>
<clipPath id="clip0_296_4357">
<rect y="0.931641" width="78" height="78" rx="39" fill="white"/>
</clipPath>
</defs>
</svg>
