<svg width="32" height="32" viewBox="0 0 32 32" fill="none" xmlns="http://www.w3.org/2000/svg">
<rect width="32" height="32" rx="16" fill="#65AAEA"/>
<path d="M8.50024 13.75C8.50024 12.3355 8.50024 11.629 8.93974 11.1895C9.37924 10.75 10.0857 10.75 11.5002 10.75H20.5002C21.9147 10.75 22.6212 10.75 23.0607 11.1895C23.5002 11.629 23.5002 12.3355 23.5002 13.75C23.5002 14.1033 23.5002 14.2803 23.3907 14.3905C23.2805 14.5 23.1027 14.5 22.7502 14.5H9.25024C8.89699 14.5 8.71999 14.5 8.60974 14.3905C8.50024 14.2803 8.50024 14.1025 8.50024 13.75ZM8.50024 20.5C8.50024 21.9145 8.50024 22.621 8.93974 23.0605C9.37924 23.5 10.0857 23.5 11.5002 23.5H20.5002C21.9147 23.5 22.6212 23.5 23.0607 23.0605C23.5002 22.621 23.5002 21.9145 23.5002 20.5V16.75C23.5002 16.3967 23.5002 16.2197 23.3907 16.1095C23.2805 16 23.1027 16 22.7502 16H9.25024C8.89699 16 8.71999 16 8.60974 16.1095C8.50024 16.2197 8.50024 16.3975 8.50024 16.75V20.5Z" fill="#FBFBFB"/>
<path d="M12.25 9.25V11.5M19.75 9.25V11.5" stroke="#FBFBFB" stroke-width="1.5" stroke-linecap="round"/>
</svg>
