<svg width="32" height="32" viewBox="0 0 32 32" fill="none" xmlns="http://www.w3.org/2000/svg">
    <rect width="32" height="32" rx="16" fill="#65AAEA"/>
    <path d="M18.28 16.33C19.9659 16.8229 21.4467 17.8489 22.5005 19.2542C23.5543 20.6595 24.1242 22.3685 24.125 24.125H7.875C7.87535 22.3684 8.44517 20.6592 9.49899 19.2538C10.5528 17.8484 12.0339 16.8225 13.72 16.33L16 19.75L18.28 16.33ZM20.0625 11.9375C20.0625 13.0149 19.6345 14.0483 18.8726 14.8101C18.1108 15.572 17.0774 16 16 16C14.9226 16 13.8892 15.572 13.1274 14.8101C12.3655 14.0483 11.9375 13.0149 11.9375 11.9375C11.9375 10.8601 12.3655 9.82675 13.1274 9.06488C13.8892 8.30301 14.9226 7.875 16 7.875C17.0774 7.875 18.1108 8.30301 18.8726 9.06488C19.6345 9.82675 20.0625 10.8601 20.0625 11.9375Z" fill="#FBFBFB"/>
</svg>
