
<svg width="78" height="79" viewBox="0 0 78 79" fill="none" xmlns="http://www.w3.org/2000/svg">
<g clip-path="url(#clip0_296_4617)">
<path d="M78 39.4546C78 17.9155 60.5391 0.45459 39 0.45459C17.4609 0.45459 0 17.9155 0 39.4546C0 60.9937 17.4609 78.4546 39 78.4546C60.5391 78.4546 78 60.9937 78 39.4546Z" fill="#FED9C9"/>
<path d="M35.5 54.9688C35.5 55.897 35.8687 56.7872 36.5251 57.4436C37.1815 58.1 38.0717 58.4688 39 58.4688C39.9283 58.4688 40.8185 58.1 41.4749 57.4436C42.1313 56.7872 42.5 55.897 42.5 54.9688C42.5 54.0405 42.1313 53.1503 41.4749 52.4939C40.8185 51.8375 39.9283 51.4688 39 51.4688C38.0717 51.4688 37.1815 51.8375 36.5251 52.4939C35.8687 53.1503 35.5 54.0405 35.5 54.9688ZM37.25 45.7812H40.75C40.9906 45.7812 41.1875 45.5844 41.1875 45.3438V19.9688C41.1875 19.7281 40.9906 19.5312 40.75 19.5312H37.25C37.0094 19.5312 36.8125 19.7281 36.8125 19.9688V45.3438C36.8125 45.5844 37.0094 45.7812 37.25 45.7812Z" fill="#C92519"/>
</g>
<defs>
<clipPath id="clip0_296_4617">
<rect y="0.45459" width="78" height="78" rx="39" fill="white"/>
</clipPath>
</defs>
</svg>
