<svg width="32" height="32" viewBox="0 0 32 32" fill="none" xmlns="http://www.w3.org/2000/svg">
    <rect width="32" height="32" rx="16" fill="#65AAEA"/>
    <path d="M9.33329 23.4998C8.87496 23.4998 8.48274 23.3368 8.15663 23.0107C7.83051 22.6846 7.66718 22.2921 7.66663 21.8332V12.6665C7.66663 12.2082 7.82996 11.8159 8.15663 11.4898C8.48329 11.1637 8.87551 11.0004 9.33329 10.9998H12.6666V9.33317C12.6666 8.87484 12.83 8.48262 13.1566 8.1565C13.4833 7.83039 13.8755 7.66706 14.3333 7.6665H17.6666C18.125 7.6665 18.5175 7.82984 18.8441 8.1565C19.1708 8.48317 19.3338 8.87539 19.3333 9.33317V10.9998H22.6666C23.125 10.9998 23.5175 11.1632 23.8441 11.4898C24.1708 11.8165 24.3338 12.2087 24.3333 12.6665V21.8332C24.3333 22.2915 24.1702 22.684 23.8441 23.0107C23.518 23.3373 23.1255 23.5004 22.6666 23.4998H9.33329ZM14.3333 10.9998H17.6666V9.33317H14.3333V10.9998Z" fill="#FBFBFB"/>
</svg>
